<svg width="30" height="31" viewBox="0 0 30 31" fill="none" xmlns="http://www.w3.org/2000/svg">
<g clip-path="url(#clip0_34_77)">
<path fill-rule="evenodd" clip-rule="evenodd" d="M26.3468 4.43846C26.7395 4.62461 26.99 5.0204 26.99 5.45509L25.1553 4.58218V4.58215L25.1565 4.58113C25.157 4.58085 25.1564 4.58136 25.1547 4.58265L25.1331 4.59941C25.1108 4.61649 25.0725 4.6451 25.0185 4.68361C24.9102 4.76065 24.7383 4.87728 24.5021 5.02063C24.0296 5.30728 23.2997 5.70076 22.3065 6.09805C20.3238 6.89115 17.2798 7.70428 13.1212 7.70509C12.7477 7.46763 12.3046 7.33008 11.8293 7.33008H8.98999C5.67628 7.33008 2.98999 10.0164 2.98999 13.3301C2.98999 15.8487 4.54186 18.0049 6.7416 18.8946C6.74053 18.9146 6.73999 18.9348 6.73999 18.9551C6.73999 22.434 7.46923 24.8511 7.95883 26.081C8.35216 27.069 9.30455 27.5801 10.2355 27.5801H12.0302C13.0575 27.5801 13.8725 26.9973 14.3498 26.2941C14.8243 25.5951 15.0519 24.6599 14.8147 23.75C14.5148 22.5998 14.2418 20.9985 14.24 18.9753C17.8306 19.1052 20.5061 19.842 22.3065 20.5622C23.2997 20.9594 24.0296 21.3528 24.5021 21.6396C24.7383 21.7829 24.9102 21.8996 25.0185 21.9765C25.0725 22.0151 25.1108 22.0437 25.1331 22.0608L25.1547 22.0775L25.1562 22.0788C25.4924 22.3515 25.9553 22.4072 26.3468 22.2218C26.7395 22.0356 26.99 21.6398 26.99 21.2051V5.45509L25.1547 4.58266L25.1553 4.58218C25.4915 4.30882 25.955 4.25281 26.3468 4.43846ZM8.99312 19.3301C9.0426 22.2831 9.66715 24.2889 10.0493 25.2488C10.0555 25.2645 10.0653 25.2788 10.0896 25.2939C10.1173 25.3113 10.1666 25.3301 10.2355 25.3301H12.0302C12.1546 25.3301 12.3328 25.2594 12.4882 25.0305C12.6463 24.7976 12.6908 24.5222 12.6375 24.3176C12.3108 23.0648 12.0237 21.3909 11.9928 19.3247C11.9387 19.3283 11.8842 19.3301 11.8293 19.3301H8.99312ZM14.24 16.7239C18.1419 16.8554 21.0992 17.6558 23.1422 18.4731C23.7585 18.7196 24.2909 18.9674 24.74 19.1979V7.46218C24.2909 7.69288 23.7585 7.94058 23.1422 8.18713C21.0992 9.00435 18.1419 9.80481 14.24 9.9363V16.7239ZM25.1547 4.58266L25.1541 4.58312L25.1547 4.58265V4.58266ZM5.23999 13.3301C5.23999 11.259 6.91893 9.58008 8.98999 9.58008H11.8293C11.918 9.58008 11.99 9.65203 11.99 9.74079V16.9194C11.99 17.0081 11.918 17.0801 11.8293 17.0801H8.98999C6.91893 17.0801 5.23999 15.4011 5.23999 13.3301Z" fill="white"/>
</g>
<defs>
<clipPath id="clip0_34_77">
<rect width="24" height="24" fill="white" transform="translate(2.98999 3.58008)"/>
</clipPath>
</defs>
</svg>
