<svg width="24" height="25" viewBox="0 0 24 25" fill="none" xmlns="http://www.w3.org/2000/svg">
<g clip-path="url(#clip0_34_177)">
<path fill-rule="evenodd" clip-rule="evenodd" d="M4.89097 2.76555C5.34084 3.19411 5.35809 3.90621 4.92952 4.35607C3.26199 6.10645 2.23999 8.47273 2.23999 11.0801C2.23999 13.5077 3.12573 15.7256 4.59309 17.4324C4.70208 17.5592 4.81426 17.6832 4.92952 17.8041C5.35809 18.254 5.34084 18.9662 4.89099 19.3947C4.44112 19.8233 3.72903 19.806 3.30046 19.3562C3.15877 19.2074 3.02086 19.055 2.8869 18.8991L3.73999 18.1658L2.8869 18.8991C1.08196 16.7996 -0.0100098 14.066 -0.0100098 11.0801C-0.0100098 7.87213 1.25028 4.95612 3.30046 2.8041C3.72903 2.35423 4.44112 2.33698 4.89097 2.76555ZM19.089 2.76556C19.5389 2.33701 20.2509 2.35426 20.6795 2.80413C22.7297 4.95615 23.99 7.87215 23.99 11.0801C23.99 14.2881 22.7297 17.2041 20.6795 19.356C20.2509 19.8059 19.5389 19.8233 19.089 19.3946C18.6392 18.966 18.6219 18.254 19.0505 17.8041C20.718 16.0538 21.74 13.6875 21.74 11.0801C21.74 8.47275 20.718 6.10648 19.0505 4.35609C18.6219 3.90624 18.6392 3.19413 19.089 2.76556ZM13.115 13.4525C14.0019 13.0312 14.615 12.1272 14.615 11.0801C14.615 9.63033 13.4397 8.45508 11.99 8.45508C10.5402 8.45508 9.36499 9.63033 9.36499 11.0801C9.36499 12.1272 9.97813 13.0312 10.865 13.4525V21.9551C10.865 22.5764 11.3687 23.0801 11.99 23.0801C12.6113 23.0801 13.115 22.5764 13.115 21.9551V13.4525ZM7.98667 7.68345C8.38893 7.20991 8.33115 6.49995 7.85761 6.09769C7.38408 5.69544 6.67411 5.75323 6.27186 6.22675C5.16114 7.5343 4.48999 9.23026 4.48999 11.0801C4.48999 12.9206 5.15437 14.6088 6.25509 15.9137C6.65571 16.3886 7.36546 16.4487 7.84038 16.0481C8.31529 15.6476 8.37551 14.9378 7.9749 14.4628C7.20373 13.5487 6.73999 12.37 6.73999 11.0801C6.73999 9.78369 7.20844 8.59957 7.98667 7.68345ZM17.7249 6.24658C17.3243 5.77167 16.6145 5.71144 16.1396 6.11205C15.6647 6.51267 15.6044 7.22244 16.005 7.69735C16.7762 8.61153 17.24 9.7902 17.24 11.0801C17.24 12.37 16.7762 13.5487 16.005 14.4628C15.6044 14.9378 15.6647 15.6476 16.1396 16.0481C16.6145 16.4487 17.3243 16.3886 17.7249 15.9137C18.8256 14.6088 19.49 12.9206 19.49 11.0801C19.49 9.23964 18.8256 7.55142 17.7249 6.24658Z" fill="white"/>
</g>
<defs>
<clipPath id="clip0_34_177">
<rect width="24" height="24" fill="white" transform="translate(-0.0100098 0.580078)"/>
</clipPath>
</defs>
</svg>
