<svg width="24" height="25" viewBox="0 0 24 25" fill="none" xmlns="http://www.w3.org/2000/svg">
<g clip-path="url(#clip0_34_23)">
<path fill-rule="evenodd" clip-rule="evenodd" d="M19.865 0.580078C20.4863 0.580078 20.99 1.08376 20.99 1.70508V3.58008H22.865C23.4863 3.58008 23.99 4.08376 23.99 4.70508C23.99 5.3264 23.4863 5.83008 22.865 5.83008H20.99V7.70508C20.99 8.3264 20.4863 8.83008 19.865 8.83008C19.2437 8.83008 18.74 8.3264 18.74 7.70508V5.83008H16.865C16.2437 5.83008 15.74 5.3264 15.74 4.70508C15.74 4.08376 16.2437 3.58008 16.865 3.58008H18.74V1.70508C18.74 1.08376 19.2437 0.580078 19.865 0.580078ZM8.24 6.58008C6.58315 6.58008 5.24 7.92322 5.24 9.58008C5.24 11.2369 6.58315 12.5801 8.24 12.5801C9.89685 12.5801 11.24 11.2369 11.24 9.58008C11.24 7.92322 9.89685 6.58008 8.24 6.58008ZM11.8389 13.4024C12.8554 12.445 13.49 11.0867 13.49 9.58008C13.49 6.68058 11.1395 4.33008 8.24 4.33008C5.34051 4.33008 2.99 6.68058 2.99 9.58008C2.99 11.0867 3.6246 12.445 4.64108 13.4024C2.01076 14.6785 0.168177 17.3118 -0.00815941 20.3908C-0.0436855 21.0111 0.430371 21.5427 1.05067 21.5782C1.67098 21.6138 2.20263 21.1397 2.23816 20.5194C2.42018 17.3413 5.02757 14.8301 8.24 14.8301C11.4524 14.8301 14.0598 17.3413 14.2418 20.5194C14.2774 21.1397 14.809 21.6138 15.4293 21.5782C16.0496 21.5427 16.5237 21.0111 16.4882 20.3908C16.3118 17.3118 14.4692 14.6785 11.8389 13.4024Z" fill="white"/>
</g>
<defs>
<clipPath id="clip0_34_23">
<rect width="24" height="24" fill="white" transform="translate(-0.0100098 0.580078)"/>
</clipPath>
</defs>
</svg>
