<svg width="30" height="31" viewBox="0 0 30 31" fill="none" xmlns="http://www.w3.org/2000/svg">
<path fill-rule="evenodd" clip-rule="evenodd" d="M14.3275 3.66749C14.5033 3.49192 14.7416 3.39331 14.99 3.39331C15.2384 3.39331 15.4767 3.49192 15.6525 3.66749L21.2775 9.29249C21.4431 9.4702 21.5332 9.70526 21.529 9.94814C21.5247 10.191 21.4263 10.4227 21.2545 10.5945C21.0828 10.7663 20.851 10.8647 20.6081 10.869C20.3653 10.8732 20.1302 10.7831 19.9525 10.6175L15.9275 6.59249V21.205C15.9275 21.4536 15.8287 21.6921 15.6529 21.8679C15.4771 22.0437 15.2386 22.1425 14.99 22.1425C14.7414 22.1425 14.5029 22.0437 14.3271 21.8679C14.1513 21.6921 14.0525 21.4536 14.0525 21.205V6.59249L10.0275 10.6175C9.84977 10.7831 9.61471 10.8732 9.37184 10.869C9.12896 10.8647 8.89723 10.7663 8.72546 10.5945C8.5537 10.4227 8.45531 10.191 8.45102 9.94814C8.44674 9.70526 8.53689 9.4702 8.70249 9.29249L14.3275 3.66749ZM3.73999 20.2675C3.98863 20.2675 4.22709 20.3663 4.4029 20.5421C4.57872 20.7179 4.67749 20.9563 4.67749 21.205V24.0175C4.67749 24.5148 4.87503 24.9917 5.22666 25.3433C5.5783 25.6949 6.05521 25.8925 6.55249 25.8925H23.4275C23.9248 25.8925 24.4017 25.6949 24.7533 25.3433C25.1049 24.9917 25.3025 24.5148 25.3025 24.0175V21.205C25.3025 20.9563 25.4013 20.7179 25.5771 20.5421C25.7529 20.3663 25.9914 20.2675 26.24 20.2675C26.4886 20.2675 26.7271 20.3663 26.9029 20.5421C27.0787 20.7179 27.1775 20.9563 27.1775 21.205V24.0175C27.1775 25.012 26.7824 25.9659 26.0791 26.6691C25.3759 27.3724 24.4221 27.7675 23.4275 27.7675H6.55249C5.55793 27.7675 4.6041 27.3724 3.90084 26.6691C3.19758 25.9659 2.80249 25.012 2.80249 24.0175V21.205C2.80249 20.9563 2.90126 20.7179 3.07708 20.5421C3.25289 20.3663 3.49135 20.2675 3.73999 20.2675Z" fill="white"/>
</svg>
